<?xml version="1.0" standalone="no"?>
<!-- Generator: Adobe Fireworks 10, Export SVG Extension by Aaron Beall (http://fireworks.abeall.com) . Version: 0.6.1  -->
<!DOCTYPE svg PUBLIC "-//W3C//DTD SVG 1.1//EN" "http://www.w3.org/Graphics/SVG/1.1/DTD/svg11.dtd">
<svg id="Untitled-Page%201" viewBox="0 0 47 41" style="background-color:transparent" version="1.1"
	xmlns="http://www.w3.org/2000/svg" xmlns:xlink="http://www.w3.org/1999/xlink" xml:space="preserve"
	x="0px" y="0px" width="47px" height="41px"
>
	<g>
		<g>
			<path d="M 9.4587 28.2767 L 6.311 33.9314 L 12.6064 33.9314 L 9.4587 28.2767 Z" fill="#222222"/>
			<path d="M 14.1808 33.9314 L 20.4773 33.9314 L 17.3285 28.2767 L 14.1808 33.9314 Z" fill="#222222"/>
			<path d="M 22.0517 33.9314 L 28.3471 33.9314 L 25.1994 28.2767 L 22.0517 33.9314 Z" fill="#222222"/>
			<path d="M 33.0697 28.2767 L 29.9209 33.9314 L 36.2168 33.9314 L 33.0697 28.2767 Z" fill="#222222"/>
			<path d="M 44.0872 33.9314 L 40.9401 28.2767 L 37.7924 33.9314 L 44.0872 33.9314 Z" fill="#222222"/>
			<path d="M 40.1535 27.8046 L 33.8576 27.8046 L 37.0046 33.4593 L 40.1535 27.8046 Z" fill="#222222"/>
			<path d="M 32.282 27.8046 L 25.9872 27.8046 L 29.1342 33.4593 L 32.282 27.8046 Z" fill="#222222"/>
			<path d="M 47 23.7552 L 40.7052 23.7552 L 43.8523 29.4099 L 47 23.7552 Z" fill="#222222"/>
			<path d="M 21.2639 33.4593 L 24.4116 27.8046 L 18.1174 27.8046 L 21.2639 33.4593 Z" fill="#222222"/>
			<path d="M 16.5419 27.8046 L 10.2453 27.8046 L 13.3942 33.4593 L 16.5419 27.8046 Z" fill="#222222"/>
			<path d="M 13.3942 21.2069 L 10.2453 26.8628 L 16.5419 26.8628 L 13.3942 21.2069 Z" fill="#222222"/>
			<path d="M 18.1174 26.8628 L 24.4116 26.8628 L 21.2639 21.2069 L 18.1174 26.8628 Z" fill="#222222"/>
			<path d="M 29.1342 21.2069 L 25.9872 26.8628 L 32.282 26.8628 L 29.1342 21.2069 Z" fill="#222222"/>
			<path d="M 40.1535 26.8628 L 37.0046 21.2069 L 33.8576 26.8628 L 40.1535 26.8628 Z" fill="#222222"/>
			<path d="M 29.9209 20.7361 L 33.0697 26.3907 L 36.2168 20.7361 L 29.9209 20.7361 Z" fill="#222222"/>
			<path d="M 25.1994 26.3907 L 28.3471 20.7361 L 22.0517 20.7361 L 25.1994 26.3907 Z" fill="#222222"/>
			<path d="M 20.4773 20.7361 L 14.1808 20.7361 L 17.3285 26.3907 L 20.4773 20.7361 Z" fill="#222222"/>
			<path d="M 10.2453 41 L 16.5419 41 L 13.3942 35.3441 L 10.2453 41 Z" fill="#222222"/>
			<path d="M 18.1174 41 L 24.4116 41 L 21.2639 35.3441 L 18.1174 41 Z" fill="#222222"/>
			<path d="M 25.9872 41 L 32.282 41 L 29.1342 35.3441 L 25.9872 41 Z" fill="#222222"/>
			<path d="M 33.8576 41 L 40.1535 41 L 37.0046 35.3441 L 33.8576 41 Z" fill="#222222"/>
			<path d="M 40.9401 40.5279 L 44.0872 34.8738 L 37.7924 34.8738 L 40.9401 40.5279 Z" fill="#222222"/>
			<path d="M 29.9209 34.8738 L 33.0697 40.5279 L 36.2168 34.8738 L 29.9209 34.8738 Z" fill="#222222"/>
			<path d="M 22.0517 34.8738 L 25.1994 40.5279 L 28.3471 34.8738 L 22.0517 34.8738 Z" fill="#222222"/>
			<path d="M 14.1808 34.8738 L 17.3285 40.5279 L 20.4773 34.8738 L 14.1808 34.8738 Z" fill="#222222"/>
			<path d="M 6.311 34.8738 L 9.4587 40.5279 L 12.6064 34.8738 L 6.311 34.8738 Z" fill="#222222"/>
			<path d="M 6.311 17.6639 L 9.4587 23.318 L 12.6064 17.6639 L 6.311 17.6639 Z" fill="#222222"/>
			<path d="M 11.217 7.5405 L 14.3647 13.1946 L 17.5124 7.5405 L 11.217 7.5405 Z" fill="#222222"/>
			<path d="M 17.3285 14.1371 L 14.1808 19.7937 L 20.4773 19.7937 L 17.3285 14.1371 Z" fill="#222222"/>
			<path d="M 22.0517 19.7937 L 28.3471 19.7937 L 25.1994 14.1371 L 22.0517 19.7937 Z" fill="#222222"/>
			<path d="M 42.1041 19.2875 L 38.9569 13.631 L 35.8081 19.2875 L 42.1041 19.2875 Z" fill="#222222"/>
			<path d="M 25.9872 13.6669 L 29.1342 19.3222 L 32.282 13.6669 L 25.9872 13.6669 Z" fill="#222222"/>
			<path d="M 24.4116 13.6669 L 18.1174 13.6669 L 21.2639 19.3222 L 24.4116 13.6669 Z" fill="#222222"/>
			<path d="M 21.2639 7.0686 L 18.1174 12.7239 L 24.4116 12.7239 L 21.2639 7.0686 Z" fill="#222222"/>
			<path d="M 32.282 12.7239 L 29.1342 7.0686 L 25.9872 12.7239 L 32.282 12.7239 Z" fill="#222222"/>
			<path d="M 28.3471 6.5983 L 22.0517 6.5983 L 25.1994 12.2536 L 28.3471 6.5983 Z" fill="#222222"/>
			<path d="M 25.1994 0 L 22.0517 5.6565 L 28.3471 5.6565 L 25.1994 0 Z" fill="#222222"/>
		</g>
		<g opacity="0.102">
			<path d="M 3.1477 28.2767 L 0 33.9314 L 6.2954 33.9314 L 3.1477 28.2767 Z" fill="#222222"/>
			<path d="M 7.8698 33.9314 L 14.1663 33.9314 L 11.0175 28.2767 L 7.8698 33.9314 Z" fill="#222222"/>
			<path d="M 15.7407 33.9314 L 22.0361 33.9314 L 18.8884 28.2767 L 15.7407 33.9314 Z" fill="#222222"/>
			<path d="M 26.7587 28.2767 L 23.6099 33.9314 L 29.9059 33.9314 L 26.7587 28.2767 Z" fill="#222222"/>
			<path d="M 37.7762 33.9314 L 34.6292 28.2767 L 31.4814 33.9314 L 37.7762 33.9314 Z" fill="#222222"/>
			<path d="M 33.8425 27.8046 L 27.5466 27.8046 L 30.6936 33.4593 L 33.8425 27.8046 Z" fill="#222222"/>
			<path d="M 25.9709 27.8046 L 19.6762 27.8046 L 22.8233 33.4593 L 25.9709 27.8046 Z" fill="#222222"/>
			<path d="M 40.689 23.7552 L 34.3943 23.7552 L 37.5413 29.4099 L 40.689 23.7552 Z" fill="#222222"/>
			<path d="M 14.953 33.4593 L 18.1006 27.8046 L 11.8064 27.8046 L 14.953 33.4593 Z" fill="#222222"/>
			<path d="M 10.2308 27.8046 L 3.9344 27.8046 L 7.0832 33.4593 L 10.2308 27.8046 Z" fill="#222222"/>
			<path d="M 7.0832 21.2069 L 3.9344 26.8628 L 10.2308 26.8628 L 7.0832 21.2069 Z" fill="#222222"/>
			<path d="M 11.8064 26.8628 L 18.1006 26.8628 L 14.953 21.2069 L 11.8064 26.8628 Z" fill="#222222"/>
			<path d="M 22.8233 21.2069 L 19.6762 26.8628 L 25.9709 26.8628 L 22.8233 21.2069 Z" fill="#222222"/>
			<path d="M 33.8425 26.8628 L 30.6936 21.2069 L 27.5466 26.8628 L 33.8425 26.8628 Z" fill="#222222"/>
			<path d="M 23.6099 20.7361 L 26.7587 26.3907 L 29.9059 20.7361 L 23.6099 20.7361 Z" fill="#222222"/>
			<path d="M 18.8884 26.3907 L 22.0361 20.7361 L 15.7407 20.7361 L 18.8884 26.3907 Z" fill="#222222"/>
			<path d="M 14.1663 20.7361 L 7.8698 20.7361 L 11.0175 26.3907 L 14.1663 20.7361 Z" fill="#222222"/>
			<path d="M 3.9344 41 L 10.2308 41 L 7.0832 35.3441 L 3.9344 41 Z" fill="#222222"/>
			<path d="M 11.8064 41 L 18.1006 41 L 14.953 35.3441 L 11.8064 41 Z" fill="#222222"/>
			<path d="M 19.6762 41 L 25.9709 41 L 22.8233 35.3441 L 19.6762 41 Z" fill="#222222"/>
			<path d="M 27.5466 41 L 33.8425 41 L 30.6936 35.3441 L 27.5466 41 Z" fill="#222222"/>
			<path d="M 34.6292 40.5279 L 37.7762 34.8738 L 31.4814 34.8738 L 34.6292 40.5279 Z" fill="#222222"/>
			<path d="M 23.6099 34.8738 L 26.7587 40.5279 L 29.9059 34.8738 L 23.6099 34.8738 Z" fill="#222222"/>
			<path d="M 15.7407 34.8738 L 18.8884 40.5279 L 22.0361 34.8738 L 15.7407 34.8738 Z" fill="#222222"/>
			<path d="M 7.8698 34.8738 L 11.0175 40.5279 L 14.1663 34.8738 L 7.8698 34.8738 Z" fill="#222222"/>
			<path d="M 0 34.8738 L 3.1477 40.5279 L 6.2954 34.8738 L 0 34.8738 Z" fill="#222222"/>
			<path d="M 0 17.6639 L 3.1477 23.318 L 6.2954 17.6639 L 0 17.6639 Z" fill="#222222"/>
			<path d="M 4.906 7.5405 L 8.0537 13.1946 L 11.2014 7.5405 L 4.906 7.5405 Z" fill="#222222"/>
			<path d="M 11.0175 14.1371 L 7.8698 19.7937 L 14.1663 19.7937 L 11.0175 14.1371 Z" fill="#222222"/>
			<path d="M 15.7407 19.7937 L 22.0361 19.7937 L 18.8884 14.1371 L 15.7407 19.7937 Z" fill="#222222"/>
			<path d="M 35.7931 19.2875 L 32.6459 13.631 L 29.4971 19.2875 L 35.7931 19.2875 Z" fill="#222222"/>
			<path d="M 19.6762 13.6669 L 22.8233 19.3222 L 25.9709 13.6669 L 19.6762 13.6669 Z" fill="#222222"/>
			<path d="M 18.1006 13.6669 L 11.8064 13.6669 L 14.953 19.3222 L 18.1006 13.6669 Z" fill="#222222"/>
			<path d="M 14.953 7.0686 L 11.8064 12.7239 L 18.1006 12.7239 L 14.953 7.0686 Z" fill="#222222"/>
			<path d="M 25.9709 12.7239 L 22.8233 7.0686 L 19.6762 12.7239 L 25.9709 12.7239 Z" fill="#222222"/>
			<path d="M 22.0361 6.5983 L 15.7407 6.5983 L 18.8884 12.2536 L 22.0361 6.5983 Z" fill="#222222"/>
			<path d="M 18.8884 0 L 15.7407 5.6565 L 22.0361 5.6565 L 18.8884 0 Z" fill="#222222"/>
		</g>
	</g>
</svg>